<svg height="512pt" viewBox="0 0 512 512" width="512pt" xmlns="http://www.w3.org/2000/svg">
  <g fill-rule="evenodd">
    <path
      d="m512 256c0-141.160156-114.839844-256-256-256s-256 114.839844-256 256c0 38.390625 8.511719 74.824219 23.71875 107.542969.132812.421875.292969.839843.484375 1.25 20.390625 43.371093 52.476563 80.101562 92.792969 106.214843 30.292968 19.625 64.164062 32.46875 99.5625 37.953126.335937.050781.667968.105468 1 .152343 1.90625.289063 3.820312.5625 5.730468.804688.0625.007812.125.015625.1875.023437 1.941407.25 3.890626.46875 5.839844.671875.480469.050781.964844.097657 1.445313.144531 1.539062.148438 3.078125.285157 4.617187.410157.472656.035156.945313.078125 1.417969.113281 1.910156.140625 3.824219.265625 5.738281.363281.394532.019531.789063.035157 1.183594.054688 1.59375.074219 3.183594.136719 4.777344.183593.542968.015626 1.085937.03125 1.628906.042969 1.957031.042969 3.914062.074219 5.875.074219s3.917969-.03125 5.875-.074219c.542969-.011719 1.085938-.027343 1.625-.042969 1.597656-.046874 3.1875-.105468 4.777344-.183593.398437-.019531.789062-.03125 1.1875-.054688 1.914062-.097656 3.828125-.222656 5.738281-.363281.472656-.035156.941406-.078125 1.414063-.113281 1.542968-.125 3.082031-.261719 4.621093-.410157.480469-.046874.964844-.09375 1.445313-.144531 1.949218-.203125 3.894531-.421875 5.835937-.671875.066407-.007812.125-.015625.1875-.023437 1.914063-.242188 3.824219-.515625 5.734375-.804688.332032-.050781.664063-.101562.996094-.152343 35.402344-5.484376 69.273438-18.328126 99.566406-37.953126 40.316406-26.113281 72.402344-62.84375 92.792969-106.214843.191406-.410157.351563-.828125.484375-1.25 15.207031-32.71875 23.71875-69.152344 23.71875-107.542969zm-256-236c130.132812 0 236 105.867188 236 236 0 33.601562-7.074219 65.574219-19.785156 94.535156h-176.214844c-5.523438 0-10 4.480469-10 10 0 5.523438 4.476562 10 10 10h166.277344c-11.574219 20.765625-26.179688 39.613282-43.230469 55.929688-.613281.585937-1.234375 1.164062-1.855469 1.738281-.371094.351563-.746094.695313-1.117187 1.042969-39.035157 35.917968-89.675781 58.382812-143.722657 62.179687-.597656.039063-1.191406.074219-1.789062.109375-1.257812.082032-2.523438.148438-3.785156.207032-1.273438.058593-2.554688.109374-3.835938.148437-.554687.015625-1.113281.027344-1.671875.042969-1.753906.039062-3.507812.066406-5.269531.066406s-3.519531-.027344-5.269531-.066406c-.558594-.011719-1.117188-.027344-1.671875-.042969-1.28125-.039063-2.5625-.089844-3.839844-.144531-1.261719-.058594-2.519531-.128906-3.777344-.207032-.597656-.035156-1.195312-.074218-1.792968-.113281-54.039063-3.796875-104.667969-26.25-143.695313-62.15625-.410156-.378906-.816406-.757812-1.222656-1.136719-.589844-.550781-1.179688-1.097656-1.761719-1.652343-17.058594-16.320313-31.667969-35.175781-43.246094-55.941407h166.277344c5.523438 0 10-4.476562 10-10 0-5.523437-4.476562-10-10-10h-176.214844c-12.710937-28.964843-19.785156-60.9375-19.785156-94.539062 0-130.132812 105.867188-236 236-236zm0 0" stroke="#B9C1C6" fill="#A5A9AA" />
    <path
      d="m256 313.960938c31.960938 0 57.960938-26 57.960938-57.960938 0-4.679688-.5625-9.339844-1.671876-13.859375-.082031-.457031-.199218-.902344-.34375-1.335937l-46.265624-178.734376c-1.140626-4.414062-5.121094-7.496093-9.679688-7.496093s-8.539062 3.082031-9.679688 7.496093l-46.433593 179.371094c-1.226563 4.734375-1.847657 9.632813-1.847657 14.558594 0 31.960938 26 57.960938 57.960938 57.960938zm-36.753906-67.507813 36.753906-141.972656 36.75 141.972656c.804688 3.097656 1.210938 6.3125 1.210938 9.546875 0 20.929688-17.03125 37.960938-37.960938 37.960938-20.933594 0-37.960938-17.03125-37.960938-37.960938 0-3.234375.40625-6.449219 1.207032-9.546875zm0 0" stroke="#B9C1C6" fill="#A5A9AA" />
    <path
      d="m406.003906 256c0 5.523438 4.476563 10 10 10h43.824219c5.523437 0 10-4.476562 10-10s-4.476563-10-10-10h-43.824219c-5.523437 0-10 4.476562-10 10zm0 0" stroke="#B9C1C6" fill="#A5A9AA" />
    <path
      d="m394.597656 185.988281c1.695313 0 3.414063-.433593 4.988282-1.339843l37.933593-21.902344c4.785157-2.761719 6.421875-8.878906 3.660157-13.660156-2.757813-4.78125-8.875-6.421876-13.660157-3.660157l-37.933593 21.902344c-4.78125 2.761719-6.421876 8.875-3.660157 13.660156 1.851563 3.207031 5.214844 5 8.671875 5zm0 0" stroke="#B9C1C6" fill="#A5A9AA" />
    <path
      d="m52.171875 266h43.824219c5.523437 0 10-4.476562 10-10s-4.476563-10-10-10h-43.824219c-5.523437 0-10 4.476562-10 10s4.476563 10 10 10zm0 0" stroke="#B9C1C6" fill="#A5A9AA" />
    <path
      d="m74.480469 162.746094 37.933593 21.902344c1.574219.90625 3.292969 1.339843 4.988282 1.339843 3.457031 0 6.820312-1.792969 8.671875-5 2.761719-4.785156 1.121093-10.898437-3.660157-13.660156l-37.933593-21.902344c-4.785157-2.761719-10.898438-1.121093-13.660157 3.660157-2.761718 4.78125-1.125 10.898437 3.660157 13.660156zm0 0" stroke="#B9C1C6" fill="#A5A9AA" />
    <path
      d="m331.011719 126.074219c1.578125.90625 3.296875 1.339843 4.992187 1.339843 3.457032 0 6.816406-1.792968 8.667969-5l21.902344-37.933593c2.761719-4.785157 1.121093-10.898438-3.660157-13.660157-4.785156-2.761718-10.898437-1.125-13.660156 3.660157l-21.902344 37.933593c-2.761718 4.78125-1.121093 10.898438 3.660157 13.660157zm0 0" stroke="#B9C1C6" fill="#A5A9AA" />
    <path
      d="m167.328125 122.414062c1.851563 3.207032 5.210937 5 8.667969 5 1.695312 0 3.417968-.433593 4.992187-1.339843 4.78125-2.761719 6.421875-8.878907 3.660157-13.660157l-21.902344-37.933593c-2.761719-4.785157-8.878906-6.421875-13.660156-3.660157-4.78125 2.761719-6.421876 8.875-3.660157 13.660157zm0 0" stroke="#B9C1C6" fill="#A5A9AA" />
    <path
      d="m176.953125 426.855469c0 18.609375 15.140625 33.746093 33.746094 33.746093h90.601562c18.605469 0 33.746094-15.136718 33.746094-33.746093 0-18.605469-15.140625-33.742188-33.746094-33.742188h-90.601562c-18.605469 0-33.746094 15.136719-33.746094 33.742188zm138.09375 0c0 7.582031-6.167969 13.746093-13.746094 13.746093h-90.601562c-7.578125 0-13.746094-6.164062-13.746094-13.746093 0-7.578125 6.167969-13.742188 13.746094-13.742188h90.601562c7.578125 0 13.746094 6.164063 13.746094 13.742188zm0 0" stroke="#B9C1C6" fill="#A5A9AA" />
    <path
      d="m266 360.535156c0-5.507812-4.492188-10-10-10s-10 4.492188-10 10c0 5.511719 4.492188 10 10 10s10-4.488281 10-10zm0 0" stroke="#B9C1C6" fill="#A5A9AA" />
  </g>
</svg>